<svg width="100" height="100" viewBox="0 0 277 277" fill="none" xmlns="http://www.w3.org/2000/svg">
<g filter="url(#filter0_d)">
<path d="M273 134.5C273 208.782 212.782 269 138.5 269C64.2177 269 4 208.782 4 134.5C4 60.2177 64.2177 0 138.5 0C212.782 0 273 60.2177 273 134.5ZM65.87 134.5C65.87 174.612 98.3876 207.13 138.5 207.13C178.612 207.13 211.13 174.612 211.13 134.5C211.13 94.3876 178.612 61.87 138.5 61.87C98.3876 61.87 65.87 94.3876 65.87 134.5Z" fill="#E76F00"/>
</g>
<g filter="url(#filter1_i)">
<path d="M40.2555 191.613C30.2952 197.403 26.7996 210.302 34.059 219.249C44.4005 231.993 57.0257 242.784 71.3476 251.037C91.7193 262.776 114.812 268.969 138.324 269C161.836 269.031 184.945 262.898 205.347 251.212C225.749 239.527 242.732 222.697 254.602 202.401C266.472 182.106 272.814 159.053 272.996 135.542C273.178 112.031 267.194 88.883 255.64 68.4059C244.086 47.9288 227.367 30.8381 207.148 18.8378C192.933 10.4013 177.339 4.68791 161.161 1.92267C149.804 -0.0184475 140.276 9.35225 140.112 20.8721V20.8721C139.949 32.392 149.273 41.6315 160.467 44.3593C169.358 46.5262 177.918 50.0057 185.854 54.7158C199.8 62.9936 211.334 74.7828 219.304 88.908C227.274 103.033 231.402 119.001 231.276 135.219C231.15 151.437 226.775 167.339 218.588 181.339C210.4 195.339 198.685 206.948 184.611 215.008C170.538 223.069 154.597 227.3 138.379 227.279C122.16 227.257 106.23 222.985 92.178 214.888C84.1822 210.28 76.9531 204.526 70.7054 197.839C62.8401 189.42 50.2158 185.823 40.2555 191.613V191.613Z" fill="#5382A1"/>
</g>
<g clip-path="url(#clip0)">
<path d="M161.894 161.334H161.543V161.138H162.487V161.334H162.138V162.312H161.894V161.334V161.334ZM163.775 161.385H163.769L163.422 162.312H163.263L162.918 161.385H162.914V162.312H162.683V161.139H163.023L163.343 161.97L163.662 161.139H164V162.312H163.775L163.775 161.385V161.385Z" fill="#E76F00"/>
<path d="M130.531 137.332C130.531 137.332 128.094 138.749 132.266 139.229C137.32 139.805 139.904 139.723 145.474 138.668C145.474 138.668 146.938 139.587 148.983 140.382C136.497 145.733 120.723 140.072 130.531 137.332ZM129.005 130.349C129.005 130.349 126.271 132.372 130.447 132.804C135.846 133.361 140.11 133.407 147.488 131.986C147.488 131.986 148.509 133.021 150.114 133.586C135.017 138.001 118.201 133.934 129.005 130.349" fill="#5382A1"/>
<path d="M141.868 118.503C144.945 122.045 141.06 125.233 141.06 125.233C141.06 125.233 148.872 121.2 145.284 116.15C141.933 111.441 139.364 109.101 153.275 101.033C153.275 101.033 131.439 106.487 141.868 118.503" fill="#E76F00"/>
<path d="M158.383 142.497C158.383 142.497 160.187 143.983 156.396 145.133C149.189 147.316 126.398 147.975 120.067 145.22C117.791 144.23 122.059 142.856 123.401 142.567C124.802 142.264 125.602 142.32 125.602 142.32C123.071 140.538 109.242 145.821 118.577 147.334C144.036 151.463 164.987 145.475 158.383 142.497V142.497ZM131.703 123.113C131.703 123.113 120.11 125.867 127.598 126.867C130.759 127.29 137.062 127.194 142.932 126.702C147.73 126.298 152.547 125.437 152.547 125.437C152.547 125.437 150.856 126.162 149.632 126.997C137.859 130.093 115.117 128.653 121.664 125.486C127.201 122.81 131.703 123.113 131.703 123.113V123.113ZM152.499 134.737C164.467 128.519 158.934 122.543 155.071 123.348C154.125 123.545 153.703 123.716 153.703 123.716C153.703 123.716 154.054 123.166 154.725 122.927C162.366 120.241 168.242 130.849 152.259 135.051C152.259 135.051 152.444 134.885 152.499 134.737Z" fill="#5382A1"/>
<path d="M145.284 88.0061C145.284 88.0061 151.912 94.6353 138.998 104.83C128.643 113.007 136.637 117.67 138.994 122.997C132.95 117.543 128.514 112.743 131.49 108.275C135.858 101.716 147.958 98.5365 145.284 88.0061" fill="#E76F00"/>
<path d="M132.879 151.587C144.366 152.322 162.006 151.179 162.423 145.744C162.423 145.744 161.62 147.804 152.93 149.441C143.126 151.286 131.033 151.07 123.861 149.888C123.861 149.888 125.329 151.103 132.879 151.587" fill="#5382A1"/>
<path d="M130.997 172.354C129.913 173.294 128.768 173.822 127.741 173.822C126.275 173.822 125.483 172.943 125.483 171.533C125.483 170.008 126.332 168.893 129.737 168.893H130.996L130.997 172.354V172.354ZM133.987 175.728V165.286C133.987 162.618 132.465 160.858 128.797 160.858C126.655 160.858 124.779 161.387 123.254 162.061L123.694 163.909C124.895 163.469 126.449 163.059 127.974 163.059C130.087 163.059 130.997 163.909 130.997 165.668V166.988H129.942C124.807 166.988 122.491 168.981 122.491 171.973C122.491 174.554 124.018 176.022 126.891 176.022C128.739 176.022 130.118 175.259 131.407 174.143L131.641 175.728L133.987 175.728V175.728ZM143.966 175.728H140.236L135.748 161.122H139.005L141.79 170.096L142.409 172.795C143.818 168.893 144.815 164.934 145.313 161.122H148.481C147.632 165.932 146.105 171.211 143.966 175.728V175.728ZM158.272 172.354C157.186 173.294 156.04 173.822 155.013 173.822C153.549 173.822 152.755 172.943 152.755 171.533C152.755 170.008 153.606 168.893 157.01 168.893H158.272V172.354ZM161.262 175.728V165.286C161.262 162.618 159.737 160.858 156.072 160.858C153.929 160.858 152.052 161.387 150.528 162.061L150.968 163.909C152.169 163.469 153.726 163.059 155.25 163.059C157.361 163.059 158.272 163.909 158.272 165.668V166.988H157.215C152.079 166.988 149.764 168.981 149.764 171.973C149.764 174.554 151.289 176.022 154.163 176.022C156.011 176.022 157.39 175.259 158.681 174.143L158.916 175.728L161.262 175.728V175.728ZM119.213 178.208C118.36 179.452 116.984 180.437 115.476 180.994L114 179.257C115.147 178.668 116.131 177.717 116.588 176.832C116.984 176.045 117.147 175.03 117.147 172.602V155.928H120.324V172.374C120.324 175.619 120.065 176.93 119.213 178.208" fill="#E76F00"/>
</g>
<defs>
<filter id="filter0_d" x="0" y="0" width="277" height="277" filterUnits="userSpaceOnUse" color-interpolation-filters="sRGB">
<feFlood flood-opacity="0" result="BackgroundImageFix"/>
<feColorMatrix in="SourceAlpha" type="matrix" values="0 0 0 0 0 0 0 0 0 0 0 0 0 0 0 0 0 0 127 0"/>
<feOffset dy="4"/>
<feGaussianBlur stdDeviation="2"/>
<feColorMatrix type="matrix" values="0 0 0 0 0 0 0 0 0 0 0 0 0 0 0 0 0 0 0.25 0"/>
<feBlend mode="normal" in2="BackgroundImageFix" result="effect1_dropShadow"/>
<feBlend mode="normal" in="SourceGraphic" in2="effect1_dropShadow" result="shape"/>
</filter>
<filter id="filter1_i" x="30.1998" y="1.66675" width="242.8" height="271.333" filterUnits="userSpaceOnUse" color-interpolation-filters="sRGB">
<feFlood flood-opacity="0" result="BackgroundImageFix"/>
<feBlend mode="normal" in="SourceGraphic" in2="BackgroundImageFix" result="shape"/>
<feColorMatrix in="SourceAlpha" type="matrix" values="0 0 0 0 0 0 0 0 0 0 0 0 0 0 0 0 0 0 127 0" result="hardAlpha"/>
<feOffset dy="4"/>
<feGaussianBlur stdDeviation="2"/>
<feComposite in2="hardAlpha" operator="arithmetic" k2="-1" k3="1"/>
<feColorMatrix type="matrix" values="0 0 0 0 0 0 0 0 0 0 0 0 0 0 0 0 0 0 0.25 0"/>
<feBlend mode="normal" in2="shape" result="effect1_innerShadow"/>
</filter>
<clipPath id="clip0">
<rect width="50" height="93" fill="white" transform="translate(114 88)"/>
</clipPath>
</defs>
</svg>
