<svg width="100" height="100" viewBox="0 0 281 278" fill="none" xmlns="http://www.w3.org/2000/svg">
<g filter="url(#filter0_d)">
<path d="M277 135.5C277 209.782 216.782 270 142.5 270C68.2177 270 8 209.782 8 135.5C8 61.2177 68.2177 1 142.5 1C216.782 1 277 61.2177 277 135.5ZM69.87 135.5C69.87 175.612 102.388 208.13 142.5 208.13C182.612 208.13 215.13 175.612 215.13 135.5C215.13 95.3876 182.612 62.87 142.5 62.87C102.388 62.87 69.87 95.3876 69.87 135.5Z" fill="#31A807"/>
</g>
<g filter="url(#filter1_i)">
<path d="M142.455 244.253C143.432 257.726 155.251 268.075 168.325 264.678C194.117 257.976 217.532 243.705 235.396 223.439C258.693 197.011 270.69 162.496 268.808 127.315C266.926 92.1343 251.315 59.0964 225.332 35.3039C205.407 17.0597 180.604 5.36864 154.244 1.45654C140.882 -0.526544 130.234 11.0244 130.701 24.5249V24.5249C131.167 38.0253 142.695 48.2469 155.779 51.606C169.272 55.0701 181.84 61.808 192.296 71.3821C208.829 86.5212 218.762 107.543 219.959 129.928C221.157 152.314 213.523 174.275 198.7 191.092C189.325 201.727 177.548 209.767 164.501 214.651C151.85 219.387 141.479 230.78 142.455 244.253V244.253Z" fill="#030104"/>
</g>
<g filter="url(#filter2_i)">
<path d="M209.275 229.336C213.97 235.291 222.661 236.359 228.107 231.082C244.706 214.994 256.937 194.839 263.515 172.518C271.391 145.791 270.772 117.278 261.743 90.9175C252.714 64.5574 235.722 41.652 213.113 25.3662C194.232 11.7652 172.212 3.34192 149.236 0.80952C141.698 -0.0212553 135.487 6.15129 135.428 13.7344V13.7344C135.37 21.3175 141.496 27.4216 149.009 28.4495C166.287 30.8134 182.8 37.3749 197.062 47.6487C215.055 60.6093 228.578 78.838 235.763 99.816C242.948 120.794 243.441 143.486 237.173 164.756C232.205 181.616 223.183 196.924 210.982 209.385C205.677 214.803 204.58 223.381 209.275 229.336V229.336Z" fill="#2062AF"/>
</g>
<g filter="url(#filter3_i)">
<path d="M106.793 257.689C105.678 261.506 107.864 265.525 111.736 266.434C128.338 270.335 145.554 271.048 162.463 268.51C181.749 265.616 200.175 258.562 216.463 247.837C232.752 237.113 246.513 222.975 256.794 206.403C267.074 189.831 273.628 171.221 276.001 151.864C278.374 132.507 276.508 112.866 270.535 94.3012C264.561 75.7367 254.622 58.6933 241.406 44.3524C228.19 30.0115 212.013 18.7161 193.997 11.2492C178.202 4.70251 161.324 1.23611 144.271 1.01164C140.294 0.959301 137.202 4.33074 137.362 8.30422V8.30422C137.523 12.2777 140.876 15.3461 144.852 15.424C159.817 15.7171 174.617 18.8057 188.484 24.5528C204.57 31.2202 219.015 41.3062 230.816 54.1116C242.617 66.917 251.492 82.1356 256.826 98.7124C262.16 115.289 263.825 132.828 261.707 150.112C259.588 167.397 253.736 184.014 244.556 198.811C235.376 213.609 223.088 226.233 208.544 235.809C193.999 245.385 177.547 251.684 160.326 254.269C145.482 256.497 130.373 255.919 115.781 252.589C111.904 251.704 107.909 253.872 106.793 257.689V257.689Z" fill="#E44D26"/>
</g>
<g clip-path="url(#clip0)">
<path d="M157.831 77H128.172C126.972 77 126 78.1148 126 79.4911V113.509C126 114.882 126.972 116 128.172 116H157.831C159.028 116 160.003 114.885 160.003 113.509V79.4874C160 78.1148 159.028 77 157.831 77ZM141.438 98.9802C141.438 100.062 141.349 100.988 141.168 101.751C140.988 102.513 140.716 103.123 140.355 103.603C139.991 104.075 139.538 104.423 138.997 104.641C138.455 104.863 137.825 104.972 137.106 104.972C136.473 104.972 135.903 104.856 135.39 104.63C134.387 104.198 133.602 103.272 133.257 102.11C133.054 101.46 132.956 100.778 132.965 100.088V99.6011H135.001C135.001 101.776 135.704 102.866 137.11 102.866C137.471 102.866 137.787 102.818 138.072 102.72C138.354 102.619 138.591 102.437 138.788 102.161C138.984 101.889 139.13 101.511 139.231 101.021C139.332 100.531 139.383 99.8953 139.383 99.1073V86.9352H141.444L141.438 98.9802ZM152.807 102.513C152.591 103.011 152.288 103.45 151.914 103.803C151.496 104.187 151.015 104.482 150.502 104.663C149.948 104.866 149.327 104.968 148.64 104.968C145.598 104.968 143.993 103.592 143.828 100.832H145.829C145.838 102.39 146.769 103.171 148.618 103.171C149.03 103.171 149.397 103.12 149.71 103.015C150.027 102.913 150.29 102.768 150.499 102.586C150.907 102.248 151.148 101.707 151.145 101.13C151.154 100.876 151.11 100.625 151.021 100.393C150.939 100.204 150.777 100.041 150.54 99.8953C150.223 99.7173 149.894 99.5757 149.552 99.474C149.004 99.2925 148.453 99.1182 147.899 98.9547C147.238 98.7659 146.665 98.5771 146.187 98.3883C145.762 98.2358 145.363 98.007 145.003 97.7056C144.702 97.4478 144.464 97.1064 144.315 96.7142C144.167 96.3184 144.094 95.8209 144.094 95.2218C144.094 94.6953 144.192 94.205 144.385 93.7511C144.581 93.3008 144.857 92.9087 145.224 92.5746C145.585 92.2441 146.025 91.9863 146.538 91.7975C147.095 91.6014 147.678 91.507 148.26 91.5142C151.202 91.5142 152.699 92.7126 152.743 95.1128H150.774C150.705 93.9145 149.916 93.3117 148.409 93.3117C148.074 93.3117 147.766 93.3517 147.478 93.4279C147.19 93.5042 146.946 93.6131 146.734 93.7584C146.522 93.9 146.361 94.0779 146.24 94.2885C146.123 94.5064 146.06 94.7606 146.066 95.0184C146.066 95.269 146.095 95.476 146.149 95.6358C146.202 95.7992 146.332 95.948 146.541 96.086C146.747 96.224 147.054 96.362 147.459 96.4964C147.865 96.6307 148.419 96.7978 149.122 96.9939C149.799 97.1827 150.391 97.3751 150.891 97.5785C151.388 97.7818 151.803 98.0251 152.139 98.312C152.471 98.5953 152.715 98.9475 152.876 99.3578C153.035 99.7682 153.117 100.284 153.117 100.901C153.123 101.486 153.016 102.02 152.807 102.513V102.513Z" fill="#030104"/>
</g>
<path d="M159.966 180.037L156.458 140.692H195L191.489 180.031L175.705 184.407L159.966 180.037Z" fill="#E44D26"/>
<path d="M175.729 181.062L188.483 177.526L191.483 143.909H175.729V181.062Z" fill="#F16529"/>
<path d="M175.729 158.502H169.344L168.903 153.561H175.729V148.735H163.63L163.746 150.03L164.931 163.327H175.729V158.502ZM175.729 171.034L175.708 171.04L170.334 169.589L169.991 165.74H165.147L165.823 173.317L175.707 176.061L175.729 176.055V171.034Z" fill="#EBEBEB"/>
<path d="M160.044 130H162.496V132.423H164.739V130H167.191V137.337H164.739V134.88H162.496V137.337H160.044L160.044 130ZM170.416 132.433H168.257V130H175.028V132.433H172.868V137.337H170.416V132.433H170.416ZM176.102 130H178.659L180.232 132.578L181.803 130H184.361V137.337H181.918V133.7L180.231 136.309H180.189L178.501 133.7V137.337H176.102V130H176.102ZM185.581 130H188.034V134.912H191.482V137.337H185.581V130Z" fill="black"/>
<path d="M175.712 158.502V163.327H181.654L181.094 169.586L175.712 171.038V176.058L185.604 173.317L185.676 172.501L186.81 159.798L186.928 158.502H185.628H175.712ZM175.712 148.735V153.561H187.367L187.464 152.476L187.684 150.03L187.799 148.735H175.712Z" fill="white"/>
<g clip-path="url(#clip1)">
<path d="M132.938 138.584L116.5 134.158L100.061 138.584L96.2673 179.681H136.732L132.938 138.584Z" fill="#2062AF"/>
<path d="M116.5 176.352V137.688L116.537 137.678L129.84 141.26L132.911 176.352H116.5V176.352Z" fill="#3C9CD7"/>
<path d="M107.17 185.719V188.165H110.739V190.842H104.493V183.277H110.739V185.719H107.17ZM117.159 188.165H119.654V190.842H113.408V188.165C114.243 187.33 114.679 186.93 115.888 185.721C115.181 185.721 113.408 185.719 113.408 185.719V183.277H119.654V185.719L117.159 188.165ZM126.011 188.165H128.506V190.842H122.26V188.165C123.096 187.33 123.532 186.93 124.74 185.721C124.034 185.721 122.26 185.719 122.26 185.719V183.277H128.507V185.719L126.011 188.165V188.165Z" fill="black"/>
<path d="M116.485 166.077L104.719 161.176L105.109 156.325L116.485 161.189L128.586 166.362L129.087 171.325L116.485 166.077Z" fill="white"/>
<path d="M104.719 161.177L105.109 156.325L116.485 161.189V166.077L104.719 161.177V161.177Z" fill="url(#paint0_linear)"/>
<path d="M129.087 171.325L116.485 166.077V161.189L128.586 166.362L129.087 171.325Z" fill="url(#paint1_linear)"/>
<path d="M104.737 161.176L105.127 156.325L122.582 156.269L122.191 149.801L116.448 148.184L110.927 149.578L110.592 153.593H105.462L106.131 145.842L116.504 142.775L126.82 145.786L128.158 161.176H104.737V161.176Z" fill="url(#paint2_linear)"/>
<path opacity="0.05" d="M116.485 161.176H104.719L105.109 156.325L116.485 156.289V161.176ZM116.485 148.199L116.429 148.184L110.909 149.578L110.574 153.593H105.444L106.113 145.842L116.485 142.775V148.199Z" fill="black"/>
<path d="M103.66 171.325H129.087L128.586 166.362H104.273L103.66 171.325V171.325Z" fill="url(#paint3_linear)"/>
<path opacity="0.05" d="M116.485 171.325H103.66L104.273 166.362H116.485V171.325V171.325Z" fill="black"/>
</g>
<defs>
<filter id="filter0_d" x="4" y="1" width="277" height="277" filterUnits="userSpaceOnUse" color-interpolation-filters="sRGB">
<feFlood flood-opacity="0" result="BackgroundImageFix"/>
<feColorMatrix in="SourceAlpha" type="matrix" values="0 0 0 0 0 0 0 0 0 0 0 0 0 0 0 0 0 0 127 0"/>
<feOffset dy="4"/>
<feGaussianBlur stdDeviation="2"/>
<feColorMatrix type="matrix" values="0 0 0 0 0 0 0 0 0 0 0 0 0 0 0 0 0 0 0.25 0"/>
<feBlend mode="normal" in2="BackgroundImageFix" result="effect1_dropShadow"/>
<feBlend mode="normal" in="SourceGraphic" in2="effect1_dropShadow" result="shape"/>
</filter>
<filter id="filter1_i" x="130.686" y="1.23383" width="138.314" height="268.095" filterUnits="userSpaceOnUse" color-interpolation-filters="sRGB">
<feFlood flood-opacity="0" result="BackgroundImageFix"/>
<feBlend mode="normal" in="SourceGraphic" in2="BackgroundImageFix" result="shape"/>
<feColorMatrix in="SourceAlpha" type="matrix" values="0 0 0 0 0 0 0 0 0 0 0 0 0 0 0 0 0 0 127 0" result="hardAlpha"/>
<feOffset dy="4"/>
<feGaussianBlur stdDeviation="2"/>
<feComposite in2="hardAlpha" operator="arithmetic" k2="-1" k3="1"/>
<feColorMatrix type="matrix" values="0 0 0 0 0 0 0 0 0 0 0 0 0 0 0 0 0 0 0.25 0"/>
<feBlend mode="normal" in2="shape" result="effect1_innerShadow"/>
</filter>
<filter id="filter2_i" x="135.428" y="0.734406" width="133.572" height="237.753" filterUnits="userSpaceOnUse" color-interpolation-filters="sRGB">
<feFlood flood-opacity="0" result="BackgroundImageFix"/>
<feBlend mode="normal" in="SourceGraphic" in2="BackgroundImageFix" result="shape"/>
<feColorMatrix in="SourceAlpha" type="matrix" values="0 0 0 0 0 0 0 0 0 0 0 0 0 0 0 0 0 0 127 0" result="hardAlpha"/>
<feOffset dy="4"/>
<feGaussianBlur stdDeviation="2"/>
<feComposite in2="hardAlpha" operator="arithmetic" k2="-1" k3="1"/>
<feColorMatrix type="matrix" values="0 0 0 0 0 0 0 0 0 0 0 0 0 0 0 0 0 0 0.25 0"/>
<feBlend mode="normal" in2="shape" result="effect1_innerShadow"/>
</filter>
<filter id="filter3_i" x="106.502" y="1.01105" width="170.498" height="272.989" filterUnits="userSpaceOnUse" color-interpolation-filters="sRGB">
<feFlood flood-opacity="0" result="BackgroundImageFix"/>
<feBlend mode="normal" in="SourceGraphic" in2="BackgroundImageFix" result="shape"/>
<feColorMatrix in="SourceAlpha" type="matrix" values="0 0 0 0 0 0 0 0 0 0 0 0 0 0 0 0 0 0 127 0" result="hardAlpha"/>
<feOffset dy="4"/>
<feGaussianBlur stdDeviation="2"/>
<feComposite in2="hardAlpha" operator="arithmetic" k2="-1" k3="1"/>
<feColorMatrix type="matrix" values="0 0 0 0 0 0 0 0 0 0 0 0 0 0 0 0 0 0 0.25 0"/>
<feBlend mode="normal" in2="shape" result="effect1_innerShadow"/>
</filter>
<linearGradient id="paint0_linear" x1="110.602" y1="156.325" x2="110.602" y2="166.076" gradientUnits="userSpaceOnUse">
<stop offset="0.387" stop-color="#D1D3D4" stop-opacity="0"/>
<stop offset="1" stop-color="#D1D3D4"/>
</linearGradient>
<linearGradient id="paint1_linear" x1="122.786" y1="161.189" x2="122.786" y2="171.325" gradientUnits="userSpaceOnUse">
<stop offset="0.387" stop-color="#D1D3D4" stop-opacity="0"/>
<stop offset="1" stop-color="#D1D3D4"/>
</linearGradient>
<linearGradient id="paint2_linear" x1="104.737" y1="151.976" x2="128.158" y2="151.976" gradientUnits="userSpaceOnUse">
<stop stop-color="#E8E7E5"/>
<stop offset="1" stop-color="white"/>
</linearGradient>
<linearGradient id="paint3_linear" x1="103.66" y1="168.844" x2="129.087" y2="168.844" gradientUnits="userSpaceOnUse">
<stop stop-color="#E8E7E5"/>
<stop offset="1" stop-color="white"/>
</linearGradient>
<clipPath id="clip0">
<rect width="34" height="39" fill="white" transform="translate(126 77)"/>
</clipPath>
<clipPath id="clip1">
<rect width="65" height="65" fill="white" transform="matrix(1 0 0 -1 84 195)"/>
</clipPath>
</defs>
</svg>
