<svg width="100" height="100" viewBox="0 0 277 277" fill="none" xmlns="http://www.w3.org/2000/svg">
<g filter="url(#filter0_d)">
<path d="M273 134.5C273 208.782 212.782 269 138.5 269C64.2177 269 4 208.782 4 134.5C4 60.2177 64.2177 0 138.5 0C212.782 0 273 60.2177 273 134.5ZM65.87 134.5C65.87 174.612 98.3876 207.13 138.5 207.13C178.612 207.13 211.13 174.612 211.13 134.5C211.13 94.3876 178.612 61.87 138.5 61.87C98.3876 61.87 65.87 94.3876 65.87 134.5Z" fill="#D5B01C"/>
</g>
<g filter="url(#filter1_i)">
<path d="M24.8607 134.5C13.3396 134.5 3.83464 143.895 5.61446 155.278C8.6191 174.494 15.77 192.915 26.6673 209.224C41.4464 231.343 62.4524 248.582 87.0291 258.762C111.606 268.942 138.649 271.605 164.74 266.416C190.83 261.226 214.796 248.416 233.606 229.606C252.416 210.796 265.226 186.83 270.416 160.74C275.605 134.649 272.942 107.606 262.762 83.0291C252.582 58.4524 235.343 37.4464 213.224 22.6673C196.915 11.77 178.494 4.6191 159.278 1.61446C147.895 -0.165355 138.5 9.33964 138.5 20.8607V20.8607C138.5 32.3817 147.955 41.488 159.186 44.0567C170.14 46.5622 180.606 51.0501 190.045 57.3574C205.302 67.552 217.194 82.0421 224.216 98.9952C231.238 115.948 233.076 134.603 229.496 152.6C225.916 170.598 217.08 187.129 204.104 200.104C191.129 213.08 174.598 221.916 156.6 225.496C138.603 229.076 119.948 227.238 102.995 220.216C86.0421 213.194 71.552 201.302 61.3574 186.045C55.0501 176.606 50.5622 166.14 48.0567 155.186C45.488 143.955 36.3817 134.5 24.8607 134.5V134.5Z" fill="#3775A8"/>
</g>
<path d="M138.813 108C125.612 108 126.436 113.755 126.436 113.755L126.451 119.716H139.048V121.506H121.447C121.447 121.506 113 120.543 113 133.933C113 147.322 120.373 146.848 120.373 146.848H124.773V140.634C124.773 140.634 124.536 133.223 132.028 133.223C139.521 133.223 144.523 133.223 144.523 133.223C144.523 133.223 151.542 133.337 151.542 126.403C151.542 119.469 151.542 114.938 151.542 114.938C151.542 114.938 152.608 108 138.813 108ZM131.866 112.009C133.12 112.009 134.133 113.027 134.133 114.287C134.133 115.547 133.12 116.565 131.866 116.565C130.613 116.565 129.6 115.547 129.6 114.287C129.6 113.027 130.613 112.009 131.866 112.009Z" fill="url(#paint0_linear)"/>
<path d="M139.187 160C152.388 160 151.564 154.245 151.564 154.245L151.549 148.284H138.952V146.494H156.553C156.553 146.494 165 147.457 165 134.067C165 120.678 157.627 121.152 157.627 121.152H153.227V127.366C153.227 127.366 153.464 134.777 145.972 134.777C138.479 134.777 133.477 134.777 133.477 134.777C133.477 134.777 126.458 134.663 126.458 141.597C126.458 148.531 126.458 153.062 126.458 153.062C126.458 153.062 125.392 160 139.187 160ZM146.134 155.991C144.88 155.991 143.867 154.973 143.867 153.713C143.867 152.453 144.88 151.435 146.134 151.435C147.387 151.435 148.4 152.453 148.4 153.713C148.4 154.973 147.387 155.991 146.134 155.991Z" fill="url(#paint1_linear)"/>
<defs>
<filter id="filter0_d" x="0" y="0" width="277" height="277" filterUnits="userSpaceOnUse" color-interpolation-filters="sRGB">
<feFlood flood-opacity="0" result="BackgroundImageFix"/>
<feColorMatrix in="SourceAlpha" type="matrix" values="0 0 0 0 0 0 0 0 0 0 0 0 0 0 0 0 0 0 127 0"/>
<feOffset dy="4"/>
<feGaussianBlur stdDeviation="2"/>
<feColorMatrix type="matrix" values="0 0 0 0 0 0 0 0 0 0 0 0 0 0 0 0 0 0 0.25 0"/>
<feBlend mode="normal" in2="BackgroundImageFix" result="effect1_dropShadow"/>
<feBlend mode="normal" in="SourceGraphic" in2="effect1_dropShadow" result="shape"/>
</filter>
<filter id="filter1_i" x="5.39917" y="1.39914" width="267.601" height="271.601" filterUnits="userSpaceOnUse" color-interpolation-filters="sRGB">
<feFlood flood-opacity="0" result="BackgroundImageFix"/>
<feBlend mode="normal" in="SourceGraphic" in2="BackgroundImageFix" result="shape"/>
<feColorMatrix in="SourceAlpha" type="matrix" values="0 0 0 0 0 0 0 0 0 0 0 0 0 0 0 0 0 0 127 0" result="hardAlpha"/>
<feOffset dy="4"/>
<feGaussianBlur stdDeviation="2"/>
<feComposite in2="hardAlpha" operator="arithmetic" k2="-1" k3="1"/>
<feColorMatrix type="matrix" values="0 0 0 0 0 0 0 0 0 0 0 0 0 0 0 0 0 0 0.25 0"/>
<feBlend mode="normal" in2="shape" result="effect1_innerShadow"/>
</filter>
<linearGradient id="paint0_linear" x1="117.997" y1="112.545" x2="143.844" y2="138.344" gradientUnits="userSpaceOnUse">
<stop stop-color="#387EB8"/>
<stop offset="1" stop-color="#366994"/>
</linearGradient>
<linearGradient id="paint1_linear" x1="133.814" y1="129.043" x2="161.568" y2="155.494" gradientUnits="userSpaceOnUse">
<stop stop-color="#D8B61D"/>
<stop offset="1" stop-color="#C99414"/>
</linearGradient>
</defs>
</svg>
